HIERARCHY
ROOT Hips
{
	OFFSET -3.958830 18.904000 13.208200
	CHANNELS 6 Xposition Yposition Zposition Zrotation Yrotation Xrotation 
	JOINT LHipJoint
	{
		OFFSET 0.000000 0.000000 0.000000
		CHANNELS 3 Zrotation Yrotation Xrotation
		JOINT LeftUpLeg
		{
			OFFSET 1.800000 -1.400000 0.085000
			CHANNELS 3 Zrotation Yrotation Xrotation
			JOINT LeftLeg
			{
				OFFSET 2.215000 -6.000000 0.000000
				CHANNELS 3 Zrotation Yrotation Xrotation
				JOINT LeftFoot
				{
					OFFSET 2.500000 -6.900000 0.000000
					CHANNELS 3 Zrotation Yrotation Xrotation
					JOINT LeftToeBase
					{
						OFFSET 0.200000 -0.500000 1.950000
						CHANNELS 3 Zrotation Yrotation Xrotation
						End Site
						{
							OFFSET 0.000000 0.000000 0.000000
						}
					}
				}
			}
		}
	}
	JOINT RHipJoint
	{
		OFFSET 0.000000 0.000000 0.000000
		CHANNELS 3 Zrotation Yrotation Xrotation
		JOINT RightUpLeg
		{
			OFFSET -1.800000 -1.400000 0.085000
			CHANNELS 3 Zrotation Yrotation Xrotation
			JOINT RightLeg
			{
				OFFSET -2.215000 -6.000000 0.000000
				CHANNELS 3 Zrotation Yrotation Xrotation
				JOINT RightFoot
				{
					OFFSET -2.500000 -6.900000 0.000000
					CHANNELS 3 Zrotation Yrotation Xrotation
					JOINT RightToeBase
					{
						OFFSET -0.200000 -0.500000 1.950000
						CHANNELS 3 Zrotation Yrotation Xrotation
						End Site
						{
							OFFSET 0.000000 0.000000 0.000000
						}
					}
				}
			}
		}
	}
	JOINT LowerBack
	{
		OFFSET 0.000000 0.000000 0.000000
		CHANNELS 3 Zrotation Yrotation Xrotation
		JOINT Spine
		{
			OFFSET -0.087000 1.940000 -0.288900
			CHANNELS 3 Zrotation Yrotation Xrotation
			JOINT Spine1
			{
				OFFSET 0.000000 1.950000 0.060000
				CHANNELS 3 Zrotation Yrotation Xrotation
				JOINT Neck
				{
					OFFSET 0.000000 0.000000 0.000000
					CHANNELS 3 Zrotation Yrotation Xrotation
					JOINT Neck1
					{
						OFFSET 0.000000 1.600000 0.340000
						CHANNELS 3 Zrotation Yrotation Xrotation
						JOINT Head
						{
							OFFSET 0.000000 1.667000 -0.240000
							CHANNELS 3 Zrotation Yrotation Xrotation
							End Site
							{
								OFFSET 0.000000 0.000000 0.000000
							}
						}
					}
				}
				JOINT LeftShoulder
				{
					OFFSET 0.000000 0.000000 0.000000
					CHANNELS 3 Zrotation Yrotation Xrotation
					JOINT LeftArm
					{
						OFFSET 2.700000 1.550000 -0.730000
						CHANNELS 3 Zrotation Yrotation Xrotation
						JOINT LeftForeArm
						{
							OFFSET 5.450000 0.000000 0.000000
							CHANNELS 3 Zrotation Yrotation Xrotation
							JOINT LeftHand
							{
								OFFSET 3.450000 0.000000 0.000000
								CHANNELS 3 Zrotation Yrotation Xrotation
								JOINT LeftHandIndex1
								{
									OFFSET 0.750000 0.000000 0.000000
									CHANNELS 3 Zrotation Yrotation Xrotation
									End Site
									{
										OFFSET 0.000000 0.000000 0.000000
									}
								}
							}
						}
					}
				}
				JOINT RightShoulder
				{
					OFFSET 0.000000 0.000000 0.000000
					CHANNELS 3 Zrotation Yrotation Xrotation
					JOINT RightArm
					{
						OFFSET -2.700000 1.550000 -0.730000
						CHANNELS 3 Zrotation Yrotation Xrotation
						JOINT RightForeArm
						{
							OFFSET -5.450000 0.000000 0.000000
							CHANNELS 3 Zrotation Yrotation Xrotation
							JOINT RightHand
							{
								OFFSET -3.450000 0.000000 0.000000
								CHANNELS 3 Zrotation Yrotation Xrotation
								JOINT RightHandIndex1
								{
									OFFSET -0.750000 0.000000 0.000000
									CHANNELS 3 Zrotation Yrotation Xrotation
									End Site
									{
										OFFSET 0.000000 0.000000 0.000000
									}
								}
							}
						}
					}
				}
			}
		}
	}
}
MOTION
Frames: 8
Frame Time: 0.016667
0.966070 17.557480 -8.941760 -4.101630 -43.512798 4.994634 -15.118634 13.326626 3.566464 0.766672 -2.911293 -19.147612 -5.538723 3.153225 1.373933 -0.176726 2.492495 3.708136 0.082820 0.154350 -0.129370 18.211186 -10.619458 2.880682 -7.873421 0.045797 -0.110542 7.303194 -4.558480 6.088707 -0.216655 -4.121019 3.080336 0.159760 0.289850 -0.046330 -3.380925 -2.732307 -7.614612 13.237992 -0.079232 12.379656 -10.045537 2.080198 -4.952709 8.395325 -14.564572 -10.699234 -32.808539 19.822640 24.558652 2.528790 10.819600 2.857250 -0.874866 17.789757 5.615800 -52.247781 24.148985 -6.440880 -87.501011 -31.303237 23.171252 -3.483197 3.766580 -0.070200 0.147270 -0.168190 0.133330 -15.086610 -2.002044 -2.696045 -39.075132 -10.153716 2.799690 -114.832377 29.819590 -34.775870 3.146320 -1.872049 -0.095970 0.153660 0.027820 0.066090 
0.940620 17.597980 -8.821830 -5.099433 -42.188766 5.906203 -15.208118 13.651367 3.712922 1.813945 -2.583548 -18.209005 -6.827660 3.265019 -0.190465 -0.091038 2.694527 3.638454 0.064310 0.121850 -0.122110 18.101558 -10.423764 2.816221 -5.516071 -0.188696 -1.132042 7.018281 -4.646378 8.312188 -0.189312 -3.870674 3.162264 0.116300 0.251680 -0.061520 -2.935190 -3.627873 -7.798380 12.938181 -0.955127 13.161239 -8.220532 1.424585 -8.637911 8.923903 -14.541766 -10.860148 -34.102472 19.919868 25.643129 2.340710 11.048810 3.605110 -1.703867 20.022643 5.193364 -51.656694 26.868645 -6.106598 -88.267588 -30.730312 23.439624 -3.453460 3.743553 -0.035200 0.107010 -0.141070 0.121480 -14.614515 -3.697631 -2.918096 -38.310296 -13.260168 4.655823 -120.714690 32.826699 -41.936017 3.229704 -1.807079 -0.090580 0.139410 0.023190 0.057650 
0.916430 17.630610 -8.724920 -4.844602 -41.340009 4.762078 -15.198225 13.641411 3.773732 2.238106 -2.284667 -16.245812 -8.443650 3.382911 -1.537742 -0.059616 2.957011 3.553558 0.075060 0.113140 -0.082680 18.119635 -10.427462 2.763093 -4.488787 -0.293410 -1.446345 7.353644 -5.050996 10.667251 -0.214196 -3.890005 3.142375 0.111480 0.218950 -0.066470 -2.979064 -3.639009 -7.813830 13.226673 -1.966770 13.372507 -9.043509 0.397991 -8.255251 8.930279 -14.554560 -10.826708 -34.601161 20.323617 26.623991 1.652770 11.462740 2.524240 -3.039572 19.842062 5.024596 -51.286691 27.469781 -6.911014 -88.425297 -32.756359 24.770215 -3.445447 3.703909 0.018960 0.079240 -0.113510 0.104420 -13.444182 -4.012831 -2.543802 -36.389405 -13.552911 4.637651 -126.070269 32.850389 -47.290381 3.218773 -1.778361 -0.105010 0.153000 0.025270 0.028380 
0.895300 17.654840 -8.634890 -4.613707 -40.624487 3.021498 -15.164500 13.637387 3.707863 2.469356 -1.956704 -14.595241 -9.053880 3.652134 -0.921357 -0.053443 3.103837 3.494948 0.099170 0.132770 -0.050970 18.163300 -10.475417 2.781264 -3.317086 -0.438388 -1.274069 7.696733 -5.404188 12.403880 -0.253459 -3.984715 3.092229 0.125760 0.187880 -0.069130 -3.098591 -3.502900 -7.763168 13.562493 -2.669295 13.802892 -9.737552 -0.301750 -6.763614 8.716167 -14.545014 -10.730928 -35.105039 20.940543 27.583016 1.292940 11.518220 1.678910 -3.860974 19.190977 4.899397 -51.682225 26.420079 -7.628065 -87.145507 -35.469526 26.152549 -3.436460 3.690198 0.047500 0.056500 -0.091760 0.094550 -12.488961 -3.974230 -2.141113 -34.641722 -12.704022 4.342169 -130.661677 32.454958 -52.355133 3.182389 -1.782779 -0.106010 0.157760 0.020100 0.012580 
0.880380 17.662990 -8.547690 -4.591435 -40.062979 1.326948 -15.118955 13.623538 3.574195 2.962493 -1.685082 -13.846781 -9.645098 4.208003 1.533959 -0.072443 3.241461 3.437192 0.118060 0.143660 -0.006550 18.205957 -10.571345 2.864068 -2.061843 -0.559531 -1.107440 8.110501 -5.669657 13.388283 -0.280901 -4.098198 3.041979 0.141640 0.165840 -0.055670 -3.217275 -3.204560 -7.724891 13.564557 -2.569829 14.477823 -10.548993 -0.147602 -5.348307 8.827769 -14.289189 -9.776895 -33.228168 20.309397 28.896131 -0.445370 11.507440 0.859520 -6.230533 19.157662 3.745319 -50.607219 24.528823 -7.352556 -86.677319 -39.420393 29.496047 -3.476452 3.699876 0.046720 0.069160 -0.086040 0.080530 -10.900843 -4.615514 -2.030368 -32.692857 -11.461342 4.219494 -134.532941 33.176791 -58.923543 3.134408 -1.805083 -0.105310 0.150450 0.012780 -0.009980 
0.867080 17.670910 -8.475010 -4.785878 -39.897804 -0.341385 -15.097547 13.684285 3.420103 3.655206 -1.405789 -14.019043 -10.212816 5.088776 5.480387 -0.066481 3.434323 3.350871 0.122120 0.137820 0.020340 18.216545 -10.624824 2.976345 -0.323436 -0.525883 -1.221540 8.424496 -5.862090 14.565868 -0.295087 -4.192678 2.999995 0.139820 0.152820 -0.029220 -3.221396 -3.055380 -7.714304 13.172006 -2.095146 15.865707 -10.039619 0.259086 -4.331298 8.827454 -13.998146 -8.882938 -31.710285 19.952342 30.262748 -2.420750 12.045160 1.330400 -8.808732 18.735465 2.559379 -49.809246 22.341728 -7.547563 -84.456313 -41.470969 30.033771 -3.528737 3.710321 0.026890 0.096190 -0.087590 0.073880 -8.675812 -4.702663 -1.873449 -30.699636 -10.224823 3.654204 -139.810960 30.698236 -62.335662 3.089611 -1.838463 -0.094100 0.117860 0.004530 -0.023770 
0.865880 17.641300 -8.405220 -4.395447 -39.583832 -2.082912 -15.053219 13.609513 3.243411 3.262856 -1.445769 -15.087327 -9.968056 6.009753 10.647402 -0.098164 3.645619 3.263540 0.134230 0.150780 0.023090 18.268264 -10.752416 3.075125 0.827141 -0.459670 -1.646095 9.169599 -6.084947 15.177605 -0.295047 -4.315012 2.950813 0.173030 0.185360 -0.009750 -3.404450 -2.591310 -7.589815 12.744639 -1.256783 16.323253 -9.629292 0.955564 -1.616286 8.167615 -13.635968 -8.075658 -29.610468 18.939972 29.891150 -2.911320 11.224910 1.002400 -9.821746 17.367076 2.264488 -50.040288 18.458848 -6.564688 -86.460097 -45.880449 35.206384 -3.594041 3.773910 -0.012200 0.141700 -0.119530 0.081770 -6.752443 -4.222211 -2.042757 -29.347516 -8.577332 2.705741 -142.110801 28.449459 -62.722228 2.984306 -1.905735 -0.100560 0.121040 0.006690 -0.022320 
0.859730 17.608220 -8.355370 -3.891154 -40.228224 -3.942104 -15.039116 13.535668 3.152913 3.438672 -1.692736 -17.245676 -9.512653 7.037174 16.397128 -0.093571 4.033738 3.097904 0.162250 0.190040 0.028020 18.286513 -10.850698 3.134222 1.752813 -0.474165 -1.832674 9.146986 -6.109838 15.679843 -0.291677 -4.382106 2.921849 0.217910 0.203160 -0.001890 -3.489411 -2.233235 -7.505383 11.878888 -0.173267 17.371471 -9.021705 2.351698 0.705583 7.616800 -13.370138 -7.618868 -28.099513 17.835808 29.093522 -3.156630 9.921420 0.161700 -11.098061 15.709019 2.353212 -50.480106 14.744069 -5.000245 -91.922749 -53.935676 46.296683 -3.659134 3.854844 -0.050340 0.168720 -0.143310 0.093510 -4.693401 -3.001709 -2.204170 -28.006714 -5.564464 1.110125 -141.544577 26.187726 -59.268838 2.843483 -1.979206 -0.098560 0.128880 -0.001080 -0.014720 
